<?xml version="1.0" encoding="UTF-8" standalone="no"?>
<!-- Created with Inkscape (http://www.inkscape.org/) -->

<svg
   version="1.1"
   id="svg1"
   width="1299.4451"
   height="2351.5466"
   viewBox="0 0 1299.4451 2351.5467"
   xmlns="http://www.w3.org/2000/svg"
   xmlns:svg="http://www.w3.org/2000/svg">
  <defs
     id="defs1" />
  <g
     id="g1"
     transform="translate(-750.35465,-226.16009)">
    <path
       id="path4"
       d="m 2005.2133,1924.2667 -16.9867,-23.6266 c -23.0933,-32.1067 -35.8266,-70.0667 -36.6266,-109.88 v -777.64 c 0.8,-39.54669 13.5333,-77.77335 36.6266,-109.89335 l 16.9867,-23.61334 -605.1333,-605.14665 -605.13735,605.14665 16.984,23.61334 c 23.08933,32.12 35.83333,70.34666 36.62533,109.89335 v 777.64 c -0.792,39.8133 -13.536,77.7733 -36.62533,109.88 l -16.984,23.6266 605.13735,605.4 z M 883.05731,1790.7601 c -1.05733,48.0533 -16.71866,92.6266 -42.99466,129 l 164.82265,164.8266 v -622.6533 h 182.3333 v -121.84 H 1004.8853 V 894.73341 l 243.1093,-243.10666 v 627.69335 l 121.832,60.7733 V 352.50676 L 840.06265,882.25341 c 26.276,36.64 41.93733,80.96 42.99466,129.26669 z M 1552.4266,2326.36 1430.6,2448.1867 V 350.90676 l 530.0266,529.75999 c -26.5466,36.64 -42.2,80.94666 -43.2666,129.25335 v 779.2533 c 1.0666,48.04 16.72,92.6267 43.2666,129 l -165.08,165.0667 V 893.14675 l -60.52,-60.52 V 2143.76 L 1613.2,2265.5867 V 710.81342 l -60.7734,-60.78667 z m -152.3466,251.3467 -649.72535,-649.72 33.70266,-47.2533 c 19.38,-26.5333 29.72934,-57.8533 30.52667,-90.4933 v -776.3334 c -0.79733,-32.90662 -11.14667,-64.22662 -30.52667,-90.77329 l -33.70266,-47.24 649.72535,-649.73331 649.7199,649.73331 -33.7066,47.24 c -19.3733,26.54667 -29.72,57.86667 -30.52,90.77329 v 776.3334 c 0.8,32.64 11.1467,63.96 30.52,90.4933 l 33.7066,47.2533 -649.7199,649.72"
       style="fill:#d4a95a;fill-opacity:1;fill-rule:evenodd;stroke:none;stroke-width:0.133333" />
  </g>
</svg>
