<?xml version="1.0" encoding="UTF-8" standalone="no"?>
<!-- Created with Inkscape (http://www.inkscape.org/) -->

<svg
   version="1.1"
   id="svg1"
   width="278.17386mm"
   height="503.38211mm"
   viewBox="0 0 1051.3658 1902.5466"
   xmlns="http://www.w3.org/2000/svg"
   xmlns:svg="http://www.w3.org/2000/svg">
  <defs
     id="defs1" />
  <path
     d="M 525.68447,8.6060797 7.9026233,529.52397 34.761493,567.39849 c 15.44441,21.2836 23.69104,46.3942 24.32645,72.7769 v 622.41971 c -0.63541,26.1688 -8.88204,51.28 -24.32645,72.5529 l -26.8588697,37.8839 517.7818467,520.9086 517.77863,-520.9086 -26.862,-37.8839 c -15.4389,-21.2729 -23.68409,-46.3841 -24.32169,-72.5529 V 640.17539 c 0.6376,-26.3827 8.88279,-51.4933 24.32169,-72.7769 l 26.862,-37.87452 z"
     style="display:inline;fill:none;fill-opacity:1;fill-rule:evenodd;stroke:#ffffff;stroke-width:12.134;stroke-dasharray:none;stroke-opacity:1"
     id="path3" />
  <path
     style="display:inline;fill:none;fill-opacity:1;fill-rule:evenodd;stroke:#ffffff;stroke-width:12.134;stroke-dasharray:none;stroke-opacity:1"
     d="m 648.91498,1699.0064 -98.54966,98.5497 V 100.99544 l 428.75649,428.54078 c -21.4744,29.63937 -34.137,65.48047 -34.9998,104.55737 V 1264.458 c 0.8628,38.8612 13.5254,74.9289 34.9998,104.3525 l -133.5388,133.528 V 539.63171 l -48.9567,-48.95667 V 1551.2951 l -98.54967,98.5497 V 392.13611 l -49.16166,-49.17239 z"
     id="path2" />
  <path
     style="display:inline;fill:none;fill-opacity:1;fill-rule:evenodd;stroke:#ffffff;stroke-width:12.134;stroke-dasharray:none;stroke-opacity:1"
     d="m 107.43951,1265.7415 c -0.85531,38.872 -13.524297,74.9288 -34.779837,104.3525 L 205.99029,1503.4278 V 999.74248 h 147.49558 v -98.5605 H 205.99029 V 540.91522 L 402.64963,344.25801 v 507.76237 l 98.55403,49.1616 V 102.28973 L 72.659673,530.81972 c 21.25554,29.63937 33.924527,65.49127 34.779837,104.56817 z"
     id="path1" />
</svg>
